<svg width="128" height="128" viewBox="0 0 128 128" fill="none" xmlns="http://www.w3.org/2000/svg">
  <defs><linearGradient id="g" x1="16" y1="12" x2="112" y2="118" gradientUnits="userSpaceOnUse"><stop stop-color="#FF8A4C"/><stop offset="0.48" stop-color="#EE4D2D"/><stop offset="1" stop-color="#FFC83D"/></linearGradient></defs>
  <rect x="8" y="8" width="112" height="112" rx="28" fill="url(#g)"/>
  <circle cx="68" cy="40" r="18" fill="#FFD96A"/>
  <path d="M39 52H49L54 79H87L93 62H59" stroke="white" stroke-width="6" stroke-linecap="round" stroke-linejoin="round"/>
  <circle cx="61" cy="87" r="7" fill="white"/>
  <circle cx="81" cy="87" r="7" fill="white"/>
  <path d="M61 36C63 32 66 31 69 31C73 31 76 32 78 36" stroke="#8A4B00" stroke-width="3.5" stroke-linecap="round"/>
  <circle cx="63" cy="39" r="2.2" fill="#8A4B00"/><circle cx="74" cy="39" r="2.2" fill="#8A4B00"/>
  <path d="M62 47C64 50 66 51 69 51C72 51 74 50 76 47" stroke="#8A4B00" stroke-width="3.5" stroke-linecap="round"/>
</svg>
