<svg width="512" height="512" viewBox="0 0 512 512" fill="none" xmlns="http://www.w3.org/2000/svg">
  <defs>
    <linearGradient id="bg" x1="64" y1="48" x2="448" y2="464" gradientUnits="userSpaceOnUse">
      <stop stop-color="#FF7A45"/>
      <stop offset="0.55" stop-color="#EE4D2D"/>
      <stop offset="1" stop-color="#FDBA2D"/>
    </linearGradient>
    <linearGradient id="coin" x1="164" y1="126" x2="336" y2="304" gradientUnits="userSpaceOnUse">
      <stop stop-color="#FFF7AE"/>
      <stop offset="1" stop-color="#F5A623"/>
    </linearGradient>
  </defs>
  <rect x="32" y="32" width="448" height="448" rx="120" fill="url(#bg)"/>
  <circle cx="256" cy="220" r="96" fill="url(#coin)"/>
  <circle cx="256" cy="220" r="73" fill="#FFF3C4" fill-opacity="0.45"/>
  <path d="M220 198C228 182 244 172 262 172C283 172 300 185 307 204" stroke="#9A5A00" stroke-width="16" stroke-linecap="round"/>
  <path d="M212 240C223 258 238 268 256 268C274 268 289 258 300 240" stroke="#9A5A00" stroke-width="16" stroke-linecap="round"/>
  <circle cx="226" cy="214" r="10" fill="#9A5A00"/>
  <circle cx="286" cy="214" r="10" fill="#9A5A00"/>
  <path d="M154 352C191 321 224 306 256 306C289 306 322 321 358 352" stroke="white" stroke-width="24" stroke-linecap="round" opacity="0.9"/>
  <path d="M120 388C165 350 210 332 256 332C303 332 348 350 392 388" stroke="#7A2010" stroke-opacity="0.2" stroke-width="10" stroke-linecap="round"/>
</svg>
